<mxfile host="app.diagrams.net" agent="Mozilla/5.0 (Macintosh; Intel Mac OS X 10_15_7) AppleWebKit/537.36 (KHTML, like Gecko) Chrome/134.0.0.0 Safari/537.36" version="26.2.6">
  <diagram name="New Architecture Diagram" id="0">
    <mxGraphModel dx="1187" dy="586" grid="1" gridSize="10" guides="1" tooltips="1" connect="1" arrows="1" fold="1" page="1" pageScale="1" pageWidth="827" pageHeight="1169" math="0" shadow="0">
      <root>
        <mxCell id="0" />
        <mxCell id="1" parent="0" />
        <mxCell id="2" value="👤 User" style="shape=ellipse;whiteSpace=wrap;html=1;" parent="1" vertex="1">
          <mxGeometry x="40" y="240" width="100" height="60" as="geometry" />
        </mxCell>
        <mxCell id="3" value="🌐 Web Frontend\n(HTMX or React)" style="rounded=1;whiteSpace=wrap;html=1;" parent="1" vertex="1">
          <mxGeometry x="180" y="240" width="160" height="60" as="geometry" />
        </mxCell>
        <mxCell id="4" value="🔐 Auth Service\n(Login, MFA, SSO)" style="rounded=1;whiteSpace=wrap;html=1;fillColor=#f5f5f5;" parent="1" vertex="1">
          <mxGeometry x="360" y="80" width="180" height="60" as="geometry" />
        </mxCell>
        <mxCell id="5" value="🕵️ PII Handler\n(Anonymize, Encrypt, Reinjection)" style="rounded=1;whiteSpace=wrap;html=1;fillColor=#fff2cc;" parent="1" vertex="1">
          <mxGeometry x="360" y="200" width="180" height="60" as="geometry" />
        </mxCell>
        <mxCell id="6" value="🧠 OpenAI Engine\n(Prompt Building, Token Mgmt)" style="rounded=1;whiteSpace=wrap;html=1;fillColor=#e1f5fe;" parent="1" vertex="1">
          <mxGeometry x="360" y="310" width="180" height="60" as="geometry" />
        </mxCell>
        <mxCell id="7" value="📄 DOCX Formatter\n(Apply Template, Export File)" style="rounded=1;whiteSpace=wrap;html=1;fillColor=#fce4ec;" parent="1" vertex="1">
          <mxGeometry x="360" y="410" width="180" height="60" as="geometry" />
        </mxCell>
        <mxCell id="8" value="⚙️ User Preferences\n(Fonts, Logos, Templates)" style="rounded=1;whiteSpace=wrap;html=1;fillColor=#ede7f6;" parent="1" vertex="1">
          <mxGeometry x="560" y="160" width="180" height="60" as="geometry" />
        </mxCell>
        <mxCell id="9" value="🗄️ Database\n(User Data, Docs, Logs)" style="shape=cylinder;whiteSpace=wrap;html=1;fillColor=#e0f7fa;" parent="1" vertex="1">
          <mxGeometry x="560" y="320" width="160" height="60" as="geometry" />
        </mxCell>
        <mxCell id="10" style="endArrow=block;" parent="1" source="2" target="3" edge="1">
          <mxGeometry relative="1" as="geometry" />
        </mxCell>
        <mxCell id="11" style="endArrow=block;" parent="1" source="3" target="4" edge="1">
          <mxGeometry relative="1" as="geometry" />
        </mxCell>
        <mxCell id="12" style="endArrow=block;" parent="1" source="3" target="5" edge="1">
          <mxGeometry relative="1" as="geometry" />
        </mxCell>
        <mxCell id="13" style="endArrow=block;" parent="1" source="5" target="6" edge="1">
          <mxGeometry relative="1" as="geometry" />
        </mxCell>
        <mxCell id="14" style="endArrow=block;" parent="1" source="6" target="7" edge="1">
          <mxGeometry relative="1" as="geometry" />
        </mxCell>
        <mxCell id="15" style="endArrow=block;" parent="1" source="4" target="8" edge="1">
          <mxGeometry relative="1" as="geometry" />
        </mxCell>
        <mxCell id="16" style="endArrow=block;" parent="1" source="8" target="5" edge="1">
          <mxGeometry relative="1" as="geometry" />
        </mxCell>
        <mxCell id="17" style="endArrow=block;" parent="1" source="7" target="9" edge="1">
          <mxGeometry relative="1" as="geometry" />
        </mxCell>
        <mxCell id="18" style="endArrow=block;" parent="1" source="5" target="9" edge="1">
          <mxGeometry relative="1" as="geometry" />
        </mxCell>
      </root>
    </mxGraphModel>
  </diagram>
</mxfile>
